:FULLY-SPECIFIED
:FORCE-ALL-JOINTS-BE-3DOF
:DEGREES
577
root 6.10519 16.3952 -3.76646 -90.5499 87.3809 -95.9983
lfemur -18.5402 5.44758 -19.4784
ltibia 45.412 0 0
lfoot -30.6296 9.27347 0
ltoes 2.52679 0 0
rfemur -47.2295 -8.28056 14.4674
rtibia 56.8528 0 0
rfoot 7.68816 9.22436 0
rtoes -21.3824 0 0
lowerback 4.81122 -1.09301 -4.98323
upperback 1.7417 -1.61069 1.99765
thorax -0.683349 -0.828053 4.94393
lowerneck -6.04511 -12.5849 -3.55702
upperneck 12.2017 -17.3209 5.81599
head 5.51371 -8.23968 1.12462
lclavicle -2.92379e-15 1.49089e-15 0
lhumerus -28.4676 -28.3962 90.4097
lradius 53.8366 0 0
lwrist 21.3786 0 0
lhand -14.6878 -1.93745 0
lfingers 7.12502 0 0
lthumb 11.4428 27.4229 0
rclavicle -2.92379e-15 1.49089e-15 0
rhumerus 14.5944 21.0971 -76.2436
rradius 127.642 0 0
rwrist -34.1249 0 0
rhand -21.5329 -18.5679 0
rfingers 7.12502 0 0
rthumb 4.84321 -768.174 0
578
root 6.11403 16.3943 -3.74111 -89.8711 87.3711 -95.3142
lfemur -18.4518 5.77107 -19.4412
ltibia 45.3813 0 0
lfoot -30.7017 9.49976 0
ltoes 2.363 0 0
rfemur -47.0708 -8.48589 14.5557
rtibia 56.6859 0 0
rfoot 7.68464 9.20406 0
rtoes -21.4507 0 0
lowerback 4.78538 -1.10367 -5.03225
upperback 1.75729 -1.62665 2.00275
thorax -0.650166 -0.836838 4.9773
lowerneck -6.00395 -12.615 -3.57288
upperneck 12.2339 -17.3681 5.86772
head 5.52434 -8.2598 1.13939
lclavicle -2.95748e-15 1.61678e-15 0
lhumerus -28.1987 -28.3211 90.0549
lradius 53.8025 0 0
lwrist 21.602 0 0
lhand -14.9977 -1.97226 0
lfingers 7.12502 0 0
lthumb 11.1453 27.4217 0
rclavicle -2.95748e-15 1.61678e-15 0
rhumerus 15.2642 20.7865 -76.0358
rradius 128.035 0 0
rwrist -34.8391 0 0
rhand -21.8697 -18.6382 0
rfingers 7.12502 0 0
rthumb 4.51905 -768.269 0
579
root 6.12287 16.3934 -3.71577 -89.1922 87.3613 -94.6302
lfemur -18.3634 6.09456 -19.404
ltibia 45.3507 0 0
lfoot -30.7737 9.72605 0
ltoes 2.19921 0 0
rfemur -46.9122 -8.69121 14.6439
rtibia 56.5189 0 0
rfoot 7.68113 9.18376 0
rtoes -21.5191 0 0
lowerback 4.75955 -1.11433 -5.08127
upperback 1.77288 -1.64262 2.00786
thorax -0.616982 -0.845623 5.01067
lowerneck -5.9628 -12.6451 -3.58874
upperneck 12.2662 -17.4154 5.91945
head 5.53496 -8.27993 1.15415
lclavicle -2.99116e-15 1.74268e-15 0
lhumerus -27.9297 -28.246 89.7001
lradius 53.7685 0 0
lwrist 21.8254 0 0
lhand -15.3076 -2.00707 0
lfingers 7.12502 0 0
lthumb 10.8478 27.4206 0
rclavicle -2.99116e-15 1.74268e-15 0
rhumerus 15.9341 20.476 -75.828
rradius 128.428 0 0
rwrist -35.5534 0 0
rhand -22.2065 -18.7085 0
rfingers 7.12502 0 0
rthumb 4.19489 -768.364 0
580
root 6.13171 16.3926 -3.69043 -88.5134 87.3515 -93.9461
lfemur -18.2749 6.41805 -19.3668
ltibia 45.32 0 0
lfoot -30.8458 9.95234 0
ltoes 2.03541 0 0
rfemur -46.7535 -8.89653 14.7321
rtibia 56.3519 0 0
rfoot 7.67761 9.16346 0
rtoes -21.5875 0 0
lowerback 4.73371 -1.12499 -5.13029
upperback 1.78847 -1.65858 2.01296
thorax -0.583798 -0.854408 5.04404
lowerneck -5.92164 -12.6751 -3.6046
upperneck 12.2984 -17.4626 5.97119
head 5.54559 -8.30005 1.16892
lclavicle -3.02484e-15 1.86858e-15 0
lhumerus -27.6608 -28.1709 89.3453
lradius 53.7344 0 0
lwrist 22.0489 0 0
lhand -15.6175 -2.04188 0
lfingers 7.12502 0 0
lthumb 10.5503 27.4194 0
rclavicle -3.02484e-15 1.86858e-15 0
rhumerus 16.6039 20.1654 -75.6203
rradius 128.82 0 0
rwrist -36.2677 0 0
rhand -22.5433 -18.7787 0
rfingers 7.12502 0 0
rthumb 3.87074 -768.46 0
581
root 6.14056 16.3917 -3.66508 -87.8345 87.3416 -93.262
lfemur -18.1865 6.74153 -19.3296
ltibia 45.2893 0 0
lfoot -30.9179 10.1786 0
ltoes 1.87162 0 0
rfemur -46.5949 -9.10185 14.8203
rtibia 56.185 0 0
rfoot 7.6741 9.14316 0
rtoes -21.6559 0 0
lowerback 4.70787 -1.13565 -5.17932
upperback 1.80406 -1.67455 2.01806
thorax -0.550615 -0.863194 5.07741
lowerneck -5.88049 -12.7052 -3.62046
upperneck 12.3306 -17.5099 6.02292
head 5.55621 -8.32018 1.18369
lclavicle -3.05853e-15 1.99447e-15 0
lhumerus -27.3919 -28.0958 88.9904
lradius 53.7004 0 0
lwrist 22.2723 0 0
lhand -15.9275 -2.07669 0
lfingers 7.12502 0 0
lthumb 10.2528 27.4182 0
rclavicle -3.05853e-15 1.99447e-15 0
rhumerus 17.2737 19.8549 -75.4125
rradius 129.213 0 0
rwrist -36.982 0 0
rhand -22.8801 -18.849 0
rfingers 7.12502 0 0
rthumb 3.54658 -768.555 0
582
root 6.1494 16.3909 -3.63974 -87.1556 87.3318 -92.5779
lfemur -18.0981 7.06502 -19.2924
ltibia 45.2587 0 0
lfoot -30.9899 10.4049 0
ltoes 1.70783 0 0
rfemur -46.4362 -9.30718 14.9085
rtibia 56.018 0 0
rfoot 7.67059 9.12286 0
rtoes -21.7242 0 0
lowerback 4.68203 -1.14631 -5.22834
upperback 1.81965 -1.69051 2.02316
thorax -0.517431 -0.871979 5.11078
lowerneck -5.83933 -12.7353 -3.63632
upperneck 12.3628 -17.5571 6.07465
head 5.56684 -8.3403 1.19846
lclavicle -3.09221e-15 2.12037e-15 0
lhumerus -27.123 -28.0207 88.6356
lradius 53.6663 0 0
lwrist 22.4958 0 0
lhand -16.2374 -2.1115 0
lfingers 7.12502 0 0
lthumb 9.95533 27.417 0
rclavicle -3.09221e-15 2.12037e-15 0
rhumerus 17.9435 19.5443 -75.2047
rradius 129.606 0 0
rwrist -37.6963 0 0
rhand -23.2169 -18.9193 0
rfingers 7.12502 0 0
rthumb 3.22243 -768.65 0
583
root 6.15824 16.39 -3.6144 -86.4768 87.322 -91.8938
lfemur -18.0097 7.38851 -19.2552
ltibia 45.228 0 0
lfoot -31.062 10.6312 0
ltoes 1.54404 0 0
rfemur -46.2776 -9.5125 14.9967
rtibia 55.851 0 0
rfoot 7.66707 9.10256 0
rtoes -21.7926 0 0
lowerback 4.6562 -1.15697 -5.27736
upperback 1.83524 -1.70648 2.02826
thorax -0.484247 -0.880764 5.14416
lowerneck -5.79818 -12.7653 -3.65218
upperneck 12.395 -17.6044 6.12638
head 5.57746 -8.36043 1.21323
lclavicle -3.12589e-15 2.24627e-15 0
lhumerus -26.8541 -27.9456 88.2808
lradius 53.6322 0 0
lwrist 22.7192 0 0
lhand -16.5473 -2.1463 0
lfingers 7.12502 0 0
lthumb 9.65783 27.4159 0
rclavicle -3.12589e-15 2.24627e-15 0
rhumerus 18.6134 19.2338 -74.9969
rradius 129.999 0 0
rwrist -38.4106 0 0
rhand -23.5537 -18.9896 0
rfingers 7.12502 0 0
rthumb 2.89827 -768.745 0
584
root 6.16708 16.3892 -3.58905 -85.7979 87.3122 -91.2097
lfemur -17.9212 7.712 -19.2179
ltibia 45.1973 0 0
lfoot -31.134 10.8575 0
ltoes 1.38025 0 0
rfemur -46.119 -9.71782 15.0849
rtibia 55.6841 0 0
rfoot 7.66356 9.08226 0
rtoes -21.861 0 0
lowerback 4.63036 -1.16763 -5.32639
upperback 1.85083 -1.72244 2.03336
thorax -0.451064 -0.889549 5.17753
lowerneck -5.75702 -12.7954 -3.66805
upperneck 12.4273 -17.6517 6.17811
head 5.58809 -8.38055 1.228
lclavicle -3.15958e-15 2.37216e-15 0
lhumerus -26.5852 -27.8705 87.926
lradius 53.5982 0 0
lwrist 22.9427 0 0
lhand -16.8572 -2.18111 0
lfingers 7.12502 0 0
lthumb 9.36034 27.4147 0
rclavicle -3.15958e-15 2.37216e-15 0
rhumerus 19.2832 18.9232 -74.7891
rradius 130.392 0 0
rwrist -39.1249 0 0
rhand -23.8905 -19.0598 0
rfingers 7.12502 0 0
rthumb 2.57412 -768.84 0
585
root 6.17592 16.3883 -3.56371 -85.1191 87.3024 -90.5256
lfemur -17.8328 8.03549 -19.1807
ltibia 45.1667 0 0
lfoot -31.2061 11.0838 0
ltoes 1.21646 0 0
rfemur -45.9603 -9.92314 15.1731
rtibia 55.5171 0 0
rfoot 7.66004 9.06196 0
rtoes -21.9294 0 0
lowerback 4.60452 -1.17828 -5.37541
upperback 1.86642 -1.73841 2.03847
thorax -0.41788 -0.898334 5.2109
lowerneck -5.71587 -12.8255 -3.68391
upperneck 12.4595 -17.6989 6.22985
head 5.59871 -8.40068 1.24277
lclavicle -3.19326e-15 2.49806e-15 0
lhumerus -26.3162 -27.7954 87.5712
lradius 53.5641 0 0
lwrist 23.1661 0 0
lhand -17.1671 -2.21592 0
lfingers 7.12502 0 0
lthumb 9.06284 27.4135 0
rclavicle -3.19326e-15 2.49806e-15 0
rhumerus 19.953 18.6127 -74.5814
rradius 130.784 0 0
rwrist -39.8392 0 0
rhand -24.2273 -19.1301 0
rfingers 7.12502 0 0
rthumb 2.24996 -768.936 0
586
root 6.18476 16.3874 -3.53837 -84.4402 87.2926 -89.8415
lfemur -17.7444 8.35897 -19.1435
ltibia 45.136 0 0
lfoot -31.2781 11.3101 0
ltoes 1.05267 0 0
rfemur -45.8017 -10.1285 15.2613
rtibia 55.3501 0 0
rfoot 7.65653 9.04167 0
rtoes -21.9977 0 0
lowerback 4.57868 -1.18894 -5.42443
upperback 1.88201 -1.75437 2.04357
thorax -0.384697 -0.90712 5.24427
lowerneck -5.67471 -12.8556 -3.69977
upperneck 12.4917 -17.7462 6.28158
head 5.60934 -8.4208 1.25754
lclavicle -3.22694e-15 2.62396e-15 0
lhumerus -26.0473 -27.7202 87.2164
lradius 53.5301 0 0
lwrist 23.3895 0 0
lhand -17.477 -2.25073 0
lfingers 7.12502 0 0
lthumb 8.76534 27.4123 0
rclavicle -3.22694e-15 2.62396e-15 0
rhumerus 20.6228 18.3021 -74.3736
rradius 131.177 0 0
rwrist -40.5535 0 0
rhand -24.5641 -19.2004 0
rfingers 7.12502 0 0
rthumb 1.9258 -769.031 0
